# xmcd CD database file
#
# Track frame offsets:
#	150
#	26730
#	41857
#	55482
#	73187
#	90627
#	107065
#	122930
#	138122
#	154387
#	175440
#	189187
#	210660
#	233335
#	252975
#
# Disc length: 3721 seconds
#
# Revision: 0
# Processed by: cddbd v1.4PL0 Copyright (c) Steve Scherf et al.
# Submitted via: CDex 1.50
#
DISCID=d70e870f
DTITLE=Fat City Blues - Live
DYEAR=1900
DGENRE=Blues
TTITLE0=Early in the morning
TTITLE1=Long black train
TTITLE2=You sorry now?
TTITLE3=Sittin' on top of the world
TTITLE4=Hoodoo man blues
TTITLE5=I know the feeling
TTITLE6=Boom boom
TTITLE7=Honey bee
TTITLE8=Turn me away
TTITLE9=Someday
TTITLE10=My blasted past
TTITLE11=Wish you would
TTITLE12=Help me through the day
TTITLE13=Same old road again
TTITLE14=Stones in my passway
EXTD=
EXTT0=
EXTT1=
EXTT2=
EXTT3=
EXTT4=
EXTT5=
EXTT6=
EXTT7=
EXTT8=
EXTT9=
EXTT10=
EXTT11=
EXTT12=
EXTT13=
EXTT14=
PLAYORDER=
